<svg xmlns="http://www.w3.org/2000/svg" xmlns:xlink="http://www.w3.org/1999/xlink" width="1104" height="647" viewBox="0 0 1104 647">
  <defs>
    <clipPath id="clip-_247-A">
      <rect width="1104" height="647"/>
    </clipPath>
  </defs>
  <g id="_247-A" data-name="247-A" clip-path="url(#clip-_247-A)">
    <g id="Group_60" data-name="Group 60" transform="translate(-278.472 -13.797)">
      <path id="Path_76" data-name="Path 76" d="M329.506,132.629H673.19L528.68,502.956" fill="none" stroke="#fff" stroke-linecap="round" stroke-linejoin="round" stroke-width="20"/>
      <g id="ACCOMMODATIONS" transform="translate(653.97 301.768)" style="isolation: isolate">
        <g id="Group_57" data-name="Group 57" style="isolation: isolate">
          <path id="Path_78" data-name="Path 78" d="M460.6,225.649h-7.183a3.137,3.137,0,0,1-1.986-.6,3.4,3.4,0,0,1-1.123-1.5l-3.735-10.193H425.879l-3.731,10.193a3.31,3.31,0,0,1-1.083,1.45,3.07,3.07,0,0,1-1.99.654h-7.218L431.478,175.7h9.5Zm-32.332-18.861h15.926l-6.083-16.615c-.272-.737-.583-1.608-.91-2.608s-.666-2.092-.985-3.266c-.327,1.174-.642,2.269-.954,3.282s-.614,1.9-.914,2.66Z" transform="translate(-411.856 -175.145)" fill="#fff"/>
          <path id="Path_79" data-name="Path 79" d="M461.588,214.284a1.756,1.756,0,0,1,1.316.587l3.66,3.972a20.148,20.148,0,0,1-7.482,5.768,25.758,25.758,0,0,1-10.654,2.005,25.23,25.23,0,0,1-10-1.9,22.064,22.064,0,0,1-7.581-5.288,23.079,23.079,0,0,1-4.819-8.085,30.36,30.36,0,0,1-1.675-10.26,27.576,27.576,0,0,1,1.864-10.311,23.294,23.294,0,0,1,13.353-13.333,27.822,27.822,0,0,1,10.418-1.883,24.673,24.673,0,0,1,9.724,1.777,22.8,22.8,0,0,1,7.132,4.716l-3.109,4.318a2.75,2.75,0,0,1-.709.725,1.986,1.986,0,0,1-1.19.311,2.691,2.691,0,0,1-1.623-.622,20.411,20.411,0,0,0-2.108-1.348,17.078,17.078,0,0,0-3.231-1.343,16.506,16.506,0,0,0-4.957-.627,16.7,16.7,0,0,0-6.477,1.229,14.37,14.37,0,0,0-5.079,3.507,16.145,16.145,0,0,0-3.318,5.544,21.376,21.376,0,0,0-1.19,7.34,21.937,21.937,0,0,0,1.19,7.5,16.516,16.516,0,0,0,3.231,5.528,13.747,13.747,0,0,0,4.8,3.436,14.823,14.823,0,0,0,5.942,1.194,26.021,26.021,0,0,0,3.44-.209,14.353,14.353,0,0,0,2.833-.658,12.434,12.434,0,0,0,2.451-1.154,15.463,15.463,0,0,0,2.3-1.745,3.186,3.186,0,0,1,.725-.5A1.836,1.836,0,0,1,461.588,214.284Z" transform="translate(-375.123 -175.557)" fill="#fff"/>
          <path id="Path_80" data-name="Path 80" d="M473.346,214.284a1.755,1.755,0,0,1,1.316.587l3.66,3.972a20.147,20.147,0,0,1-7.482,5.768,25.759,25.759,0,0,1-10.654,2.005,25.23,25.23,0,0,1-10-1.9,22.062,22.062,0,0,1-7.581-5.288,23.077,23.077,0,0,1-4.819-8.085,30.263,30.263,0,0,1-1.675-10.26,27.662,27.662,0,0,1,1.86-10.311,23.287,23.287,0,0,1,13.357-13.333,27.823,27.823,0,0,1,10.418-1.883,24.652,24.652,0,0,1,9.72,1.777,22.775,22.775,0,0,1,7.135,4.716l-3.109,4.318a2.814,2.814,0,0,1-.709.725,2,2,0,0,1-1.19.311,2.709,2.709,0,0,1-1.627-.622,19.894,19.894,0,0,0-2.1-1.348,17.2,17.2,0,0,0-3.231-1.343,16.506,16.506,0,0,0-4.957-.627,16.686,16.686,0,0,0-6.477,1.229,14.371,14.371,0,0,0-5.079,3.507,16.143,16.143,0,0,0-3.318,5.544,21.376,21.376,0,0,0-1.19,7.34,21.937,21.937,0,0,0,1.19,7.5,16.513,16.513,0,0,0,3.231,5.528,13.747,13.747,0,0,0,4.8,3.436,14.809,14.809,0,0,0,5.942,1.194,26.018,26.018,0,0,0,3.44-.209,14.313,14.313,0,0,0,2.829-.658,12.228,12.228,0,0,0,2.451-1.154,15.066,15.066,0,0,0,2.3-1.745,3.3,3.3,0,0,1,.729-.5A1.823,1.823,0,0,1,473.346,214.284Z" transform="translate(-340.554 -175.557)" fill="#fff"/>
          <path id="Path_81" data-name="Path 81" d="M498.552,201.085a27.682,27.682,0,0,1-1.832,10.177,24.014,24.014,0,0,1-5.146,8.1,23.279,23.279,0,0,1-7.982,5.339,28.8,28.8,0,0,1-20.674,0,23.373,23.373,0,0,1-8.014-5.339,24.01,24.01,0,0,1-5.169-8.1,29.29,29.29,0,0,1,0-20.35,24.067,24.067,0,0,1,5.169-8.1,23.431,23.431,0,0,1,8.014-5.339,27.076,27.076,0,0,1,10.347-1.915,26.729,26.729,0,0,1,10.327,1.935,23.289,23.289,0,0,1,13.128,13.42A27.676,27.676,0,0,1,498.552,201.085Zm-9.535,0a23.252,23.252,0,0,0-1.087-7.372,15.588,15.588,0,0,0-3.128-5.548,13.418,13.418,0,0,0-4.957-3.487,18.5,18.5,0,0,0-13.18,0,13.516,13.516,0,0,0-4.992,3.487,15.643,15.643,0,0,0-3.16,5.548,25.195,25.195,0,0,0,0,14.748,15.485,15.485,0,0,0,3.16,5.528,13.615,13.615,0,0,0,4.992,3.471,18.555,18.555,0,0,0,13.18,0,13.516,13.516,0,0,0,4.957-3.471,15.431,15.431,0,0,0,3.128-5.528A23.26,23.26,0,0,0,489.017,201.085Z" transform="translate(-305.855 -175.557)" fill="#fff"/>
          <path id="Path_82" data-name="Path 82" d="M488.791,207.221c.335.792.662,1.6.985,2.4.323-.827.654-1.647,1-2.451s.717-1.58,1.107-2.317l14.783-27.671a3.719,3.719,0,0,1,.571-.827,1.722,1.722,0,0,1,.658-.449,2.962,2.962,0,0,1,.812-.173c.3-.024.658-.035,1.068-.035h7.017v49.952H508.6V193.384c0-.6.02-1.253.055-1.966s.087-1.442.154-2.179l-15.1,28.329a3.933,3.933,0,0,1-1.347,1.5,3.454,3.454,0,0,1-1.935.536h-1.276a3.471,3.471,0,0,1-1.934-.536,4,4,0,0,1-1.348-1.5l-15.3-28.432c.094.76.154,1.5.189,2.226s.055,1.4.055,2.021v32.265h-8.191V175.7h7.013c.414,0,.772.012,1.072.035a2.963,2.963,0,0,1,.812.173,1.871,1.871,0,0,1,.674.449,3.281,3.281,0,0,1,.587.827L487.7,204.924Q488.288,206.03,488.791,207.221Z" transform="translate(-262.603 -175.145)" fill="#fff"/>
          <path id="Path_83" data-name="Path 83" d="M505.1,207.221c.335.792.662,1.6.985,2.4.323-.827.654-1.647,1-2.451s.713-1.58,1.107-2.317l14.783-27.671a3.861,3.861,0,0,1,.567-.827,1.755,1.755,0,0,1,.658-.449,2.994,2.994,0,0,1,.812-.173c.3-.024.658-.035,1.072-.035H533.1v49.952h-8.187V193.384c0-.6.02-1.253.055-1.966s.083-1.442.154-2.179l-15.1,28.329a3.934,3.934,0,0,1-1.347,1.5,3.472,3.472,0,0,1-1.935.536h-1.281a3.49,3.49,0,0,1-1.935-.536,4.031,4.031,0,0,1-1.347-1.5l-15.3-28.432q.136,1.141.189,2.226c.032.725.051,1.4.051,2.021v32.265H478.93V175.7h7.009q.626,0,1.076.035a2.993,2.993,0,0,1,.812.173,1.905,1.905,0,0,1,.674.449,3.273,3.273,0,0,1,.583.827l14.925,27.742Q504.6,206.03,505.1,207.221Z" transform="translate(-214.654 -175.145)" fill="#fff"/>
          <path id="Path_84" data-name="Path 84" d="M545.19,201.085a27.681,27.681,0,0,1-1.832,10.177,24.023,24.023,0,0,1-5.15,8.1,23.227,23.227,0,0,1-7.979,5.339,28.8,28.8,0,0,1-20.673,0,23.373,23.373,0,0,1-8.014-5.339,23.952,23.952,0,0,1-5.169-8.1,29.231,29.231,0,0,1,0-20.35,24.009,24.009,0,0,1,5.169-8.1,23.43,23.43,0,0,1,8.014-5.339,27.076,27.076,0,0,1,10.347-1.915,26.728,26.728,0,0,1,10.327,1.935,23.614,23.614,0,0,1,7.979,5.335,23.9,23.9,0,0,1,5.15,8.085A27.676,27.676,0,0,1,545.19,201.085Zm-9.535,0a23.255,23.255,0,0,0-1.088-7.372,15.648,15.648,0,0,0-3.128-5.548,13.42,13.42,0,0,0-4.957-3.487,18.5,18.5,0,0,0-13.18,0,13.563,13.563,0,0,0-5,3.487,15.64,15.64,0,0,0-3.156,5.548,25.11,25.11,0,0,0,0,14.748,15.482,15.482,0,0,0,3.156,5.528,13.664,13.664,0,0,0,5,3.471,18.555,18.555,0,0,0,13.18,0,13.518,13.518,0,0,0,4.957-3.471,15.489,15.489,0,0,0,3.128-5.528A23.263,23.263,0,0,0,535.656,201.085Z" transform="translate(-168.745 -175.557)" fill="#fff"/>
          <path id="Path_85" data-name="Path 85" d="M553.615,200.673a27.014,27.014,0,0,1-1.832,10.09,22.655,22.655,0,0,1-13.128,13.057,28.018,28.018,0,0,1-10.327,1.828h-19.07V175.7h19.07a27.859,27.859,0,0,1,10.327,1.848,23.4,23.4,0,0,1,7.983,5.15,22.945,22.945,0,0,1,5.146,7.892A26.994,26.994,0,0,1,553.615,200.673Zm-9.5,0a23.026,23.026,0,0,0-1.1-7.372,15.777,15.777,0,0,0-3.144-5.532,13.657,13.657,0,0,0-4.96-3.471,17.1,17.1,0,0,0-6.58-1.21H518.62v35.169h9.708a17.029,17.029,0,0,0,6.58-1.21,13.562,13.562,0,0,0,4.96-3.471,15.759,15.759,0,0,0,3.144-5.528A23.033,23.033,0,0,0,544.116,200.673Z" transform="translate(-125.488 -175.145)" fill="#fff"/>
          <path id="Path_86" data-name="Path 86" d="M569.435,225.649h-7.183a3.137,3.137,0,0,1-1.986-.6,3.4,3.4,0,0,1-1.123-1.5l-3.735-10.193H534.715l-3.731,10.193A3.311,3.311,0,0,1,529.9,225a3.07,3.07,0,0,1-1.99.654h-7.218L540.313,175.7h9.5ZM537.1,206.788h15.926l-6.083-16.615c-.272-.737-.583-1.608-.914-2.608s-.666-2.092-.985-3.266q-.484,1.761-.949,3.282c-.311,1.016-.615,1.9-.914,2.66Z" transform="translate(-91.871 -175.145)" fill="#fff"/>
          <path id="Path_87" data-name="Path 87" d="M571.43,175.7v7.636H556.4v42.316h-9.294V183.333h-15.1V175.7Z" transform="translate(-58.595 -175.145)" fill="#fff"/>
          <path id="Path_88" data-name="Path 88" d="M553.129,225.649H543.8V175.7h9.326Z" transform="translate(-23.923 -175.145)" fill="#fff"/>
          <path id="Path_89" data-name="Path 89" d="M598.971,201.085a27.68,27.68,0,0,1-1.832,10.177,24.014,24.014,0,0,1-5.146,8.1,23.283,23.283,0,0,1-7.983,5.339,28.8,28.8,0,0,1-20.674,0,23.374,23.374,0,0,1-8.014-5.339,23.952,23.952,0,0,1-5.169-8.1,29.286,29.286,0,0,1,0-20.35,24.009,24.009,0,0,1,5.169-8.1,23.431,23.431,0,0,1,8.014-5.339,27.076,27.076,0,0,1,10.346-1.915,26.73,26.73,0,0,1,10.327,1.935,23.287,23.287,0,0,1,13.128,13.42A27.674,27.674,0,0,1,598.971,201.085Zm-9.535,0a23.255,23.255,0,0,0-1.087-7.372,15.584,15.584,0,0,0-3.128-5.548,13.42,13.42,0,0,0-4.957-3.487,18.5,18.5,0,0,0-13.18,0,13.516,13.516,0,0,0-4.992,3.487,15.584,15.584,0,0,0-3.16,5.548,25.192,25.192,0,0,0,0,14.748,15.427,15.427,0,0,0,3.16,5.528,13.616,13.616,0,0,0,4.992,3.471,18.555,18.555,0,0,0,13.18,0,13.518,13.518,0,0,0,4.957-3.471,15.426,15.426,0,0,0,3.128-5.528A23.263,23.263,0,0,0,589.436,201.085Z" transform="translate(-10.616 -175.557)" fill="#fff"/>
          <path id="Path_90" data-name="Path 90" d="M568.946,175.748a2.381,2.381,0,0,1,.745.209,2.433,2.433,0,0,1,.638.449,7.371,7.371,0,0,1,.693.776L597.24,210.59q-.135-1.211-.189-2.368c-.035-.772-.047-1.489-.047-2.159V175.7h8.184v49.952h-4.8a4.264,4.264,0,0,1-1.828-.343,4.106,4.106,0,0,1-1.419-1.245L571.022,190.8q.1,1.105.154,2.191c.036.729.055,1.391.055,1.986v30.677H563.04V175.7h4.874A9.208,9.208,0,0,1,568.946,175.748Z" transform="translate(32.635 -175.145)" fill="#fff"/>
          <path id="Path_91" data-name="Path 91" d="M605.907,185.194a2.548,2.548,0,0,1-.879,1.072,2.21,2.21,0,0,1-1.194.311,3.042,3.042,0,0,1-1.556-.536c-.571-.359-1.253-.757-2.033-1.19a16.685,16.685,0,0,0-2.75-1.194,11.491,11.491,0,0,0-3.711-.536,11.028,11.028,0,0,0-3.369.465,7.122,7.122,0,0,0-2.419,1.3,5.159,5.159,0,0,0-1.47,1.986,6.523,6.523,0,0,0-.481,2.541,4.425,4.425,0,0,0,.981,2.935,8.305,8.305,0,0,0,2.608,2.006,24.5,24.5,0,0,0,3.7,1.485c1.379.433,2.793.9,4.231,1.4a41.376,41.376,0,0,1,4.232,1.726,14.727,14.727,0,0,1,3.7,2.486,11.265,11.265,0,0,1,2.608,3.68,12.748,12.748,0,0,1,.985,5.288,17.207,17.207,0,0,1-1.158,6.34,14.594,14.594,0,0,1-3.385,5.146,15.981,15.981,0,0,1-5.441,3.455,20.052,20.052,0,0,1-7.36,1.261,23.418,23.418,0,0,1-4.7-.469,24.835,24.835,0,0,1-4.44-1.328,23.4,23.4,0,0,1-3.972-2.072,19.918,19.918,0,0,1-3.3-2.7l2.7-4.456a3.383,3.383,0,0,1,.91-.812,2.23,2.23,0,0,1,1.194-.327,3.288,3.288,0,0,1,1.867.705q1,.709,2.364,1.572a18.242,18.242,0,0,0,3.215,1.572,12.393,12.393,0,0,0,4.441.709,9.1,9.1,0,0,0,6.146-1.883,6.762,6.762,0,0,0,2.179-5.406,5.048,5.048,0,0,0-.985-3.215,8.006,8.006,0,0,0-2.609-2.088,19.464,19.464,0,0,0-3.7-1.434q-2.069-.585-4.212-1.277a37.1,37.1,0,0,1-4.216-1.659,13.688,13.688,0,0,1-3.7-2.522,11.419,11.419,0,0,1-2.608-3.889,14.773,14.773,0,0,1-.985-5.752,13.775,13.775,0,0,1,4.267-9.913,15.633,15.633,0,0,1,5.13-3.211,18.656,18.656,0,0,1,6.946-1.21,23.292,23.292,0,0,1,8.152,1.383,18.347,18.347,0,0,1,6.355,3.869Z" transform="translate(68.774 -175.557)" fill="#fff"/>
        </g>
      </g>
      <g id="_24" data-name=" 24" transform="translate(355.613 187.337)" style="isolation: isolate">
        <g id="Group_58" data-name="Group 58" style="isolation: isolate">
          <path id="Path_92" data-name="Path 92" d="M336.132,228.805q9.527-6.9,16.824-12.833t12.687-11.064a113.684,113.684,0,0,0,9.042-9.523,62.439,62.439,0,0,0,5.875-8.183,31.063,31.063,0,0,0,3.164-7.072,22.531,22.531,0,0,0,.942-6.245,17.859,17.859,0,0,0-1.8-8.384,16.693,16.693,0,0,0-4.562-5.56,18.1,18.1,0,0,0-6.158-3.109,23.958,23.958,0,0,0-6.588-.973,22.57,22.57,0,0,0-6.986.946,13.29,13.29,0,0,0-4.677,2.506,9.465,9.465,0,0,0-2.624,3.652,11.693,11.693,0,0,0-.827,4.362,16.952,16.952,0,0,0,1.371,6.588,13.817,13.817,0,0,0,4.106,5.5l-.229.745a14.223,14.223,0,0,1-6.619,1.651,12.546,12.546,0,0,1-4.046-.654,10.071,10.071,0,0,1-3.42-1.938,9.425,9.425,0,0,1-2.368-3.168,9.908,9.908,0,0,1-.883-4.275,13.345,13.345,0,0,1,1.655-6.474,21.44,21.44,0,0,1,4.417-5.591,32.443,32.443,0,0,1,6.418-4.531,49.421,49.421,0,0,1,7.612-3.365,54.678,54.678,0,0,1,8.01-2.112,42.72,42.72,0,0,1,7.644-.741,33.434,33.434,0,0,1,9.724,1.371,24.014,24.014,0,0,1,7.872,3.96,18.254,18.254,0,0,1,7.155,14.917,29.372,29.372,0,0,1-.91,7.128,32.882,32.882,0,0,1-3.109,7.671,56.293,56.293,0,0,1-5.879,8.526,92.872,92.872,0,0,1-9.263,9.61q-5.591,5.1-13.235,10.918T348.681,225.61l.11.284q5.361-1.418,10.949-2.565t10.835-1.966q5.248-.827,9.984-1.257t8.5-.426a33.5,33.5,0,0,1,5.619.426,14.876,14.876,0,0,1,4.247,1.34,6.921,6.921,0,0,1,2.707,2.368,6.219,6.219,0,0,1,.941,3.451,16.545,16.545,0,0,1-1.651,6.387q-8.215-.8-15.941-1.139t-15.827-.343q-7.529,0-15.457.4T336.7,233.711Z" transform="translate(-336.132 -139.323)" fill="#fff"/>
          <path id="Path_93" data-name="Path 93" d="M354.733,238.333q10.2-14.426,17.474-25.693t12.265-20.075q4.988-8.812,8.069-15.54t4.933-12.12A89.008,89.008,0,0,0,400.3,155.1q.969-4.415,1.769-8.581a18.571,18.571,0,0,1,5.1.6,9.294,9.294,0,0,1,3.4,1.682,6.061,6.061,0,0,1,1.879,2.652,10.166,10.166,0,0,1,.575,3.507,23.813,23.813,0,0,1-1.915,8.3,95.145,95.145,0,0,1-5.217,11.009q-3.3,6.07-7.813,13.061T388.409,201.8q-5.159,7.5-10.78,15.315t-11.206,15.567l.173.229q10.886-1.483,21.154-2.593t20.075-1.742q.171-3.192.343-6.56t.343-7.439q.172-4.078.371-9.243t.426-11.946a8.225,8.225,0,0,1,.8-3.479,7.3,7.3,0,0,1,1.879-2.423,7.626,7.626,0,0,1,2.565-1.395,9.249,9.249,0,0,1,2.853-.461,10.716,10.716,0,0,1,2.766.374,9.4,9.4,0,0,1,2.652,1.166q-.455,5.591-.8,10.209t-.63,9.3q-.284,4.675-.571,9.779t-.626,11.607q4.964-.171,9.184-.173a54.713,54.713,0,0,1,5.587.256,15.075,15.075,0,0,1,4.165.969,6.023,6.023,0,0,1,2.624,1.97,5.5,5.5,0,0,1,.91,3.306,16.5,16.5,0,0,1-1.655,6.446q-5.473-.461-10.693-.713t-10.575-.426q-.231,4.959-.4,9.377t-.343,9.07q-.172,4.645-.343,9.925t-.4,11.946l-12.092,1.541-.91-.059q.455-7.984.768-13.944t.544-10.749q.225-4.793.4-8.924t.339-8.471c-.65-.039-1.277-.055-1.883-.055H399.9q-9.758,0-21.075.37T355.3,241.127Z" transform="translate(-281.444 -146.514)" fill="#fff"/>
        </g>
      </g>
      <g id="RES_COMMUNES" data-name="RES COMMUNES" transform="translate(656.401 389.316)" style="isolation: isolate">
        <g id="Group_59" data-name="Group 59" style="isolation: isolate">
          <path id="Path_94" data-name="Path 94" d="M416.917,217.1v13.774h-4.444v-33H421.8a20.216,20.216,0,0,1,5.414.634,10.314,10.314,0,0,1,3.767,1.828,7.311,7.311,0,0,1,2.2,2.892,9.638,9.638,0,0,1,.717,3.786,9.454,9.454,0,0,1-.555,3.27,8.684,8.684,0,0,1-1.6,2.73,9.6,9.6,0,0,1-2.557,2.061,12.6,12.6,0,0,1-3.42,1.288,4.69,4.69,0,0,1,1.474,1.407l9.625,13.1H432.9a1.943,1.943,0,0,1-1.793-.946l-8.57-11.789a2.517,2.517,0,0,0-.855-.8,3.045,3.045,0,0,0-1.383-.244Zm0-3.247h4.677a11.357,11.357,0,0,0,3.444-.469,7.044,7.044,0,0,0,2.486-1.336,5.6,5.6,0,0,0,1.509-2.065,6.692,6.692,0,0,0,.508-2.648,5.259,5.259,0,0,0-1.946-4.444,9.421,9.421,0,0,0-5.8-1.5h-4.882Z" transform="translate(-412.473 -197.501)" fill="#fff"/>
          <path id="Path_95" data-name="Path 95" d="M440.223,197.871v3.637H424.38v10.965h12.829v3.5H424.38v11.265h15.843v3.637H419.884v-33Z" transform="translate(-390.684 -197.501)" fill="#fff"/>
          <path id="Path_96" data-name="Path 96" d="M445.577,203.3a1.8,1.8,0,0,1-.437.52.98.98,0,0,1-.6.169,1.6,1.6,0,0,1-.91-.39,14.687,14.687,0,0,0-1.312-.863,10.615,10.615,0,0,0-1.911-.863,8.147,8.147,0,0,0-2.707-.394,7.945,7.945,0,0,0-2.652.406,5.6,5.6,0,0,0-1.919,1.091,4.5,4.5,0,0,0-1.166,1.623,5.258,5.258,0,0,0-.39,2.017,3.751,3.751,0,0,0,.678,2.293,5.987,5.987,0,0,0,1.8,1.552,13.681,13.681,0,0,0,2.537,1.115q1.412.473,2.9.981c.989.339,1.954.717,2.9,1.139a10.109,10.109,0,0,1,2.53,1.6,7.206,7.206,0,0,1,1.8,2.372,7.872,7.872,0,0,1,.682,3.455,11.1,11.1,0,0,1-.737,4.062,9.414,9.414,0,0,1-2.151,3.306,10.08,10.08,0,0,1-3.479,2.21,12.824,12.824,0,0,1-4.689.808,14.3,14.3,0,0,1-5.839-1.166,13.675,13.675,0,0,1-4.5-3.14l1.292-2.12a1.651,1.651,0,0,1,.449-.426,1.035,1.035,0,0,1,.587-.173,1.853,1.853,0,0,1,1.107.516,17.621,17.621,0,0,0,1.552,1.143,12.037,12.037,0,0,0,2.258,1.139,8.961,8.961,0,0,0,3.239.516,8.617,8.617,0,0,0,2.829-.433,6.116,6.116,0,0,0,2.108-1.233,5.363,5.363,0,0,0,1.324-1.9,6.353,6.353,0,0,0,.461-2.467,4.151,4.151,0,0,0-.678-2.451,5.667,5.667,0,0,0-1.785-1.6,12.658,12.658,0,0,0-2.522-1.091l-2.9-.922a30.3,30.3,0,0,1-2.9-1.1A9.319,9.319,0,0,1,429.9,213a7.289,7.289,0,0,1-1.785-2.474,8.763,8.763,0,0,1-.682-3.676,8.817,8.817,0,0,1,2.652-6.288,9.507,9.507,0,0,1,3.188-2.025,11.653,11.653,0,0,1,4.366-.76,13.9,13.9,0,0,1,5.043.879,11.539,11.539,0,0,1,3.983,2.533Z" transform="translate(-372.706 -197.777)" fill="#fff"/>
          <path id="Path_97" data-name="Path 97" d="M447.9,197.777a9.025,9.025,0,0,1,3.318.587,8.62,8.62,0,0,1,2.593,1.556,7.3,7.3,0,0,1,1.73,2.246,7.01,7.01,0,0,1,.721,2.66l-2.553.5a1.036,1.036,0,0,1-.776-.138.907.907,0,0,1-.374-.575,5.815,5.815,0,0,0-.52-1.241,4.867,4.867,0,0,0-.922-1.178,4.744,4.744,0,0,0-1.359-.875,4.643,4.643,0,0,0-1.856-.343,5.545,5.545,0,0,0-2.069.366,4.7,4.7,0,0,0-1.58,1.024,4.554,4.554,0,0,0-1.013,1.545,5.059,5.059,0,0,0-.355,1.923,6.038,6.038,0,0,0,.193,1.545,7.316,7.316,0,0,0,.587,1.485,9.94,9.94,0,0,0,1.017,1.541,17.1,17.1,0,0,0,1.5,1.671l9.488,9.649a16.418,16.418,0,0,0,1.391-3.235,18.122,18.122,0,0,0,.7-3.4,1.184,1.184,0,0,1,.276-.69.831.831,0,0,1,.646-.256h2.533a18.321,18.321,0,0,1-3.18,10l6.911,7h-3.964a3.054,3.054,0,0,1-1.08-.162,2.782,2.782,0,0,1-.918-.666l-3.317-3.341a16.572,16.572,0,0,1-4.988,3.318,15.5,15.5,0,0,1-6.206,1.221,10.879,10.879,0,0,1-3.617-.623,9.865,9.865,0,0,1-3.168-1.808,9.106,9.106,0,0,1-2.246-2.892,8.488,8.488,0,0,1-.851-3.846,8.624,8.624,0,0,1,.54-3.05,10.049,10.049,0,0,1,1.5-2.664,11.612,11.612,0,0,1,2.266-2.187,15.5,15.5,0,0,1,2.876-1.659,13.739,13.739,0,0,1-2.068-3.455,9.318,9.318,0,0,1-.67-3.475,8.174,8.174,0,0,1,.611-3.156,7.4,7.4,0,0,1,1.765-2.569,8.269,8.269,0,0,1,2.8-1.726A10.2,10.2,0,0,1,447.9,197.777Zm-9.141,24.251a5.832,5.832,0,0,0,2.006,4.563,6.219,6.219,0,0,0,2.049,1.186,7.073,7.073,0,0,0,2.348.4,10.937,10.937,0,0,0,4.63-.946,12.4,12.4,0,0,0,3.617-2.51l-9.744-9.834a10.036,10.036,0,0,0-3.676,3.144A7.025,7.025,0,0,0,438.761,222.028Z" transform="translate(-347.442 -197.777)" fill="#fff"/>
          <path id="Path_98" data-name="Path 98" d="M470.307,224.333a.922.922,0,0,1,.67.3l1.745,1.911a14.018,14.018,0,0,1-4.917,3.66,16.744,16.744,0,0,1-6.962,1.316,16.431,16.431,0,0,1-6.474-1.233,14.226,14.226,0,0,1-4.953-3.455,15.6,15.6,0,0,1-3.176-5.331,19.823,19.823,0,0,1-1.127-6.84,18.686,18.686,0,0,1,1.206-6.84,15.614,15.614,0,0,1,3.4-5.343,15.148,15.148,0,0,1,5.24-3.467,17.768,17.768,0,0,1,6.733-1.233,15.023,15.023,0,0,1,10.961,4.192l-1.45,2.049a1.613,1.613,0,0,1-.366.382,1.025,1.025,0,0,1-.6.15,1.155,1.155,0,0,1-.638-.221c-.221-.146-.485-.327-.792-.54s-.67-.445-1.079-.693a10.032,10.032,0,0,0-1.478-.69,12.051,12.051,0,0,0-1.978-.54,13.783,13.783,0,0,0-2.6-.221,12.571,12.571,0,0,0-4.85.91,10.837,10.837,0,0,0-3.786,2.593,11.761,11.761,0,0,0-2.474,4.1,15.634,15.634,0,0,0-.887,5.414,15.925,15.925,0,0,0,.887,5.5,12.133,12.133,0,0,0,2.419,4.09,10.159,10.159,0,0,0,3.629,2.541,11.51,11.51,0,0,0,4.511.875,18.455,18.455,0,0,0,2.648-.169,10.68,10.68,0,0,0,2.179-.544,8.926,8.926,0,0,0,1.86-.934,13.947,13.947,0,0,0,1.742-1.348A1.176,1.176,0,0,1,470.307,224.333Z" transform="translate(-316.506 -197.777)" fill="#fff"/>
          <path id="Path_99" data-name="Path 99" d="M485.674,214.66a19.025,19.025,0,0,1-1.174,6.8,15.51,15.51,0,0,1-3.317,5.331,14.8,14.8,0,0,1-5.146,3.467,18.477,18.477,0,0,1-13.274,0,14.8,14.8,0,0,1-5.138-3.467,15.568,15.568,0,0,1-3.318-5.331,20.315,20.315,0,0,1,0-13.613,15.679,15.679,0,0,1,3.318-5.339,14.86,14.86,0,0,1,5.138-3.491,18.313,18.313,0,0,1,13.274,0,14.856,14.856,0,0,1,5.146,3.491,15.621,15.621,0,0,1,3.317,5.339A19.062,19.062,0,0,1,485.674,214.66Zm-4.582,0a16.81,16.81,0,0,0-.827-5.461,11.525,11.525,0,0,0-2.352-4.086,10.14,10.14,0,0,0-3.684-2.569,13.4,13.4,0,0,0-9.649,0,10.253,10.253,0,0,0-3.7,2.569,11.428,11.428,0,0,0-2.364,4.086,18.384,18.384,0,0,0,0,10.906,11.461,11.461,0,0,0,2.364,4.078,10.176,10.176,0,0,0,3.7,2.557,13.571,13.571,0,0,0,9.649,0,10.065,10.065,0,0,0,3.684-2.557,11.559,11.559,0,0,0,2.352-4.078A16.7,16.7,0,0,0,481.092,214.66Z" transform="translate(-292.93 -197.777)" fill="#fff"/>
          <path id="Path_100" data-name="Path 100" d="M479.741,220.1c.162.41.323.82.477,1.233.154-.429.311-.839.481-1.233s.359-.784.575-1.186l11.17-20.291a1.336,1.336,0,0,1,.623-.642,2.8,2.8,0,0,1,.922-.114h3.294v33h-3.917V206.622c0-.323,0-.67.02-1.036s.039-.745.071-1.131l-11.308,20.638a1.777,1.777,0,0,1-1.611,1.036H479.9a1.782,1.782,0,0,1-1.615-1.036l-11.56-20.705c.047.4.079.792.1,1.174s.035.737.035,1.06v24.251h-3.916v-33h3.294a2.829,2.829,0,0,1,.922.114,1.283,1.283,0,0,1,.619.642l11.4,20.315A8.547,8.547,0,0,1,479.741,220.1Z" transform="translate(-264.094 -197.501)" fill="#fff"/>
          <path id="Path_101" data-name="Path 101" d="M490.5,220.1c.162.41.319.82.473,1.233.158-.429.315-.839.485-1.233s.359-.784.575-1.186l11.17-20.291a1.336,1.336,0,0,1,.622-.642,2.8,2.8,0,0,1,.922-.114h3.294v33h-3.92V206.622c0-.323.008-.67.024-1.036s.039-.745.071-1.131L492.9,225.093a1.777,1.777,0,0,1-1.612,1.036h-.646a1.781,1.781,0,0,1-1.611-1.036l-11.56-20.705c.043.4.079.792.1,1.174s.035.737.035,1.06v24.251H473.7v-33h3.294a2.829,2.829,0,0,1,.922.114,1.3,1.3,0,0,1,.619.642l11.4,20.315A9.033,9.033,0,0,1,490.5,220.1Z" transform="translate(-232.473 -197.501)" fill="#fff"/>
          <path id="Path_102" data-name="Path 102" d="M497.515,227.327a9.127,9.127,0,0,0,3.664-.693,7.6,7.6,0,0,0,2.727-1.931,8.393,8.393,0,0,0,1.706-2.975,11.654,11.654,0,0,0,.591-3.8V197.871h4.44V217.93a15.15,15.15,0,0,1-.906,5.3,12.275,12.275,0,0,1-2.6,4.224,11.857,11.857,0,0,1-4.133,2.8,15.283,15.283,0,0,1-10.961,0,12.032,12.032,0,0,1-4.149-2.8,12.232,12.232,0,0,1-2.612-4.224,15.058,15.058,0,0,1-.906-5.3V197.871h4.44v20.035a11.654,11.654,0,0,0,.591,3.8,8.437,8.437,0,0,0,1.7,2.975,7.763,7.763,0,0,0,2.746,1.942A9.066,9.066,0,0,0,497.515,227.327Z" transform="translate(-201.088 -197.501)" fill="#fff"/>
          <path id="Path_103" data-name="Path 103" d="M496.173,198.021a2.278,2.278,0,0,1,.658.607L515.948,223.5q-.071-.6-.095-1.158c-.012-.378-.02-.741-.02-1.1V197.871h3.917v33h-2.262a1.912,1.912,0,0,1-.882-.185,2.192,2.192,0,0,1-.705-.622l-19.094-24.85c.032.386.055.76.071,1.131s.024.705.024,1.013v23.514h-3.917v-33h2.305A1.943,1.943,0,0,1,496.173,198.021Z" transform="translate(-175.762 -197.501)" fill="#fff"/>
          <path id="Path_104" data-name="Path 104" d="M522.163,197.871v3.637H506.316v10.965h12.829v3.5H506.316v11.265h15.847v3.637H501.824v-33Z" transform="translate(-149.775 -197.501)" fill="#fff"/>
          <path id="Path_105" data-name="Path 105" d="M527.516,203.3a1.872,1.872,0,0,1-.441.52.975.975,0,0,1-.595.169,1.594,1.594,0,0,1-.91-.39,14.829,14.829,0,0,0-1.316-.863,10.369,10.369,0,0,0-1.911-.863,8.121,8.121,0,0,0-2.7-.394,7.929,7.929,0,0,0-2.652.406,5.582,5.582,0,0,0-1.923,1.091,4.532,4.532,0,0,0-1.162,1.623,5.186,5.186,0,0,0-.39,2.017,3.753,3.753,0,0,0,.678,2.293,5.893,5.893,0,0,0,1.8,1.552,13.527,13.527,0,0,0,2.533,1.115c.946.315,1.911.642,2.9.981s1.954.717,2.9,1.139a10.2,10.2,0,0,1,2.533,1.6,7.312,7.312,0,0,1,1.8,2.372,7.871,7.871,0,0,1,.682,3.455,11.1,11.1,0,0,1-.741,4.062,9.413,9.413,0,0,1-2.151,3.306,10.042,10.042,0,0,1-3.479,2.21,12.8,12.8,0,0,1-4.685.808,14.329,14.329,0,0,1-5.843-1.166,13.617,13.617,0,0,1-4.5-3.14l1.289-2.12a1.649,1.649,0,0,1,.449-.426,1.039,1.039,0,0,1,.591-.173,1.835,1.835,0,0,1,1.1.516,17.188,17.188,0,0,0,1.556,1.143,11.917,11.917,0,0,0,2.258,1.139,8.939,8.939,0,0,0,3.235.516,8.626,8.626,0,0,0,2.833-.433,6.154,6.154,0,0,0,2.108-1.233,5.414,5.414,0,0,0,1.324-1.9,6.425,6.425,0,0,0,.457-2.467,4.152,4.152,0,0,0-.678-2.451,5.624,5.624,0,0,0-1.785-1.6,12.463,12.463,0,0,0-2.522-1.091l-2.9-.922a29.826,29.826,0,0,1-2.9-1.1A9.4,9.4,0,0,1,511.831,213a7.347,7.347,0,0,1-1.785-2.474,9.468,9.468,0,0,1,0-7.061,8.652,8.652,0,0,1,1.97-2.9,9.528,9.528,0,0,1,3.191-2.025,11.632,11.632,0,0,1,4.362-.76,13.871,13.871,0,0,1,5.043.879,11.5,11.5,0,0,1,3.984,2.533Z" transform="translate(-131.8 -197.777)" fill="#fff"/>
        </g>
      </g>
    </g>
  </g>
</svg>
