<svg xmlns="http://www.w3.org/2000/svg" xmlns:xlink="http://www.w3.org/1999/xlink" width="391" height="391" viewBox="0 0 391 391">
  <defs>
    <clipPath id="clip-ABSA">
      <rect width="391" height="391"/>
    </clipPath>
  </defs>
  <g id="ABSA" clip-path="url(#clip-ABSA)">
    <g id="Artboard_1" data-name="Artboard 1" transform="translate(-10.765 1.599)">
      <g id="absa-2" data-name="absa" transform="translate(77.363 141.776)">
        <g id="Group_10" data-name="Group 10">
          <path id="Path_26" data-name="Path 26" d="M108.929,112.969q7.052,6.378,7.052,19.152V167.28H102.689v-7.312a16.352,16.352,0,0,1-7.364,6.05,28.78,28.78,0,0,1-11.512,2.074,28.124,28.124,0,0,1-11.789-2.3,18.357,18.357,0,0,1-7.813-6.4,16.265,16.265,0,0,1-2.748-9.265,15.9,15.9,0,0,1,6.015-12.981q6.015-4.874,19.014-4.892H102.05v-.9a12.273,12.273,0,0,0-3.751-9.645q-3.768-3.371-11.184-3.371a32.118,32.118,0,0,0-9.939,1.573,24.321,24.321,0,0,0-8.245,4.373l-5.514-10.216a34.174,34.174,0,0,1,11.339-5.514,51.008,51.008,0,0,1,14.053-1.9Q101.894,106.626,108.929,112.969ZM96.121,155.423a13.033,13.033,0,0,0,5.773-6.914v-6.914H87.409c-8.09,0-12.1,2.662-12.1,7.969a7.174,7.174,0,0,0,3.008,6.084,13.829,13.829,0,0,0,8.418,2.247,18.168,18.168,0,0,0,9.386-2.472Z" transform="translate(-61.455 -83.93)" fill="#f2c84b"/>
          <path id="Path_27" data-name="Path 27" d="M152.31,120.026a27.449,27.449,0,0,1,10.838,10.786,34.8,34.8,0,0,1,0,32.168,27.345,27.345,0,0,1-10.838,10.838,31.65,31.65,0,0,1-15.661,3.82,29.058,29.058,0,0,1-11.287-2.126,21.486,21.486,0,0,1-8.643-6.413v7.761H103.34V93.51h14.053v30.664a23.629,23.629,0,0,1,8.47-5.946,27.812,27.812,0,0,1,10.734-2.022A31.84,31.84,0,0,1,152.31,120.026Zm-4.494,40.431a20.967,20.967,0,0,0,0-27.173,16.905,16.905,0,0,0-12.739-5.186,18.063,18.063,0,0,0-9.109,2.3,16.594,16.594,0,0,0-6.4,6.568,21.97,21.97,0,0,0,0,19.775,16.714,16.714,0,0,0,6.4,6.568,18.063,18.063,0,0,0,9.109,2.3,16.974,16.974,0,0,0,12.739-5.151Z" transform="translate(-30.94 -93.51)" fill="#f2c84b"/>
          <path id="Path_28" data-name="Path 28" d="M155.112,166.229a36.022,36.022,0,0,1-11.132-4.84l5.393-10.665a34.692,34.692,0,0,0,9.714,4.321,40.346,40.346,0,0,0,11.184,1.625c8.383,0,12.584-2.2,12.584-6.62a4.408,4.408,0,0,0-3.215-4.373,55.313,55.313,0,0,0-10.268-2.368,83.725,83.725,0,0,1-12.1-2.576,18.53,18.53,0,0,1-8.09-5.186,14.3,14.3,0,0,1-3.457-10.164,15.972,15.972,0,0,1,7.139-13.638q7.139-5.186,19.256-5.186a55.782,55.782,0,0,1,12.359,1.4,34.693,34.693,0,0,1,10.112,3.768L189.2,122.393a33.326,33.326,0,0,0-17.182-4.494,19.222,19.222,0,0,0-9.386,1.85,5.566,5.566,0,0,0-3.06,5.03,4.874,4.874,0,0,0,3.457,4.771,53.774,53.774,0,0,0,10.613,2.645,82.58,82.58,0,0,1,11.806,2.576,18.7,18.7,0,0,1,7.917,4.944,13.828,13.828,0,0,1,3.3,9.887,15.66,15.66,0,0,1-7.294,13.483q-7.312,5.065-19.878,5.047a54.014,54.014,0,0,1-14.381-1.9Z" transform="translate(-1.332 -84.003)" fill="#f2c84b"/>
          <path id="Path_29" data-name="Path 29" d="M226.392,112.984q7.018,6.361,7.035,19.152v35.159H220.169v-7.312A16.352,16.352,0,0,1,212.806,166a28.781,28.781,0,0,1-11.512,2.074,28.123,28.123,0,0,1-11.789-2.3,18.253,18.253,0,0,1-7.813-6.4,16.265,16.265,0,0,1-2.748-9.265,15.9,15.9,0,0,1,6.015-12.981q6-4.874,19.014-4.892H219.53v-.9a12.273,12.273,0,0,0-3.751-9.645c-2.524-2.247-6.24-3.371-11.184-3.371a32.029,32.029,0,0,0-9.939,1.573,24.424,24.424,0,0,0-8.262,4.373l-5.618-10.216a34.173,34.173,0,0,1,11.339-5.514,51.008,51.008,0,0,1,14.053-1.9Q219.392,106.64,226.392,112.984Zm-12.774,42.453a13.12,13.12,0,0,0,5.773-6.914v-6.914H204.975q-12.1,0-12.1,7.969a7.191,7.191,0,0,0,3.042,6.067,13.828,13.828,0,0,0,8.418,2.247,18.167,18.167,0,0,0,9.282-2.454Z" transform="translate(24.134 -83.944)" fill="#f2c84b"/>
        </g>
      </g>
      <path id="Path_30" data-name="Path 30" d="M215.71,197.413l17.977,7.969a166.718,166.718,0,0,0,.778-114.291L215.71,96.915a147.341,147.341,0,0,1,0,100.5Z" transform="translate(128.289 46.503)" fill="#f2c84b"/>
      <path id="Path_31" data-name="Path 31" d="M331.869,161.852A146.822,146.822,0,0,1,66.451,159L48.18,166.26a166.407,166.407,0,0,0,300.767,5.272Z" transform="translate(6.236 95.978)" fill="#f2c84b"/>
      <path id="Path_32" data-name="Path 32" d="M67.588,98.686,49.559,90.7a166.753,166.753,0,0,0-1.608,108.76l18.893-5.393a146.926,146.926,0,0,1,.743-95.381Z" transform="translate(0 46.219)" fill="#f2c84b"/>
      <path id="Path_33" data-name="Path 33" d="M199,27.26a166.435,166.435,0,0,0-149.7,93.662l17.126,9.688a146.822,146.822,0,0,1,264.346-1.729l18.132-7.675A166.441,166.441,0,0,0,199,27.26Z" transform="translate(7.047 0)" fill="#f2c84b"/>
    </g>
  </g>
</svg>
