<svg xmlns="http://www.w3.org/2000/svg" xmlns:xlink="http://www.w3.org/1999/xlink" width="391" height="391" viewBox="0 0 391 391">
  <defs>
    <clipPath id="clip-AccTech">
      <rect width="391" height="391"/>
    </clipPath>
  </defs>
  <g id="AccTech" clip-path="url(#clip-AccTech)">
    <g id="Group_24" data-name="Group 24" transform="translate(-6.295 58.925)">
      <g id="Group_22" data-name="Group 22" transform="translate(72.198 83.514)">
        <path id="Path_57" data-name="Path 57" d="M53.941,148.215,81.8,83.514h18.289l.344,64.7H85.085l.517-12.6H73.7l-4.487,12.6ZM88.535,95.247h-.172L77.752,124.232h8.8Z" transform="translate(-53.941 -83.514)" fill="#f2c84b"/>
        <path id="Path_58" data-name="Path 58" d="M115.2,112.6l.085-.863c.088-1.811.6-3.709.69-5.521-.26-1.983-1.035-3.018-3.106-3.018-3.536,0-4.745,2.76-5.349,5.866l-4.311,19.927c-.606,3.02-.26,5.608,3.278,5.608,5.089,0,5.778-7.591,6.555-11.215h13.286a65.542,65.542,0,0,1-3.536,11.475c-3.106,6.038-8.886,8.8-14.925,9.4-1.295.085-2.588.258-4.657.258-9.836,0-16.132-3.968-13.8-15.011L93.63,109.84c2.589-12.422,9.836-16.564,20.447-16.564,13.544.174,17.685,6.04,14.063,19.324Z" transform="translate(-35.138 -78.266)" fill="#f2c84b"/>
        <path id="Path_59" data-name="Path 59" d="M143.254,112.6l.086-.863c.088-1.811.6-3.709.69-5.521-.26-1.983-1.036-3.018-3.106-3.018-3.536,0-4.745,2.76-5.349,5.866l-4.313,19.927c-.6,3.02-.26,5.608,3.278,5.608,5.091,0,5.78-7.591,6.556-11.215h13.286a65.542,65.542,0,0,1-3.536,11.475c-3.107,6.038-8.887,8.8-14.925,9.4-1.295.085-2.588.258-4.659.258-9.834,0-16.132-3.968-13.8-15.011l4.227-19.669c2.588-12.422,9.834-16.564,20.447-16.564,13.543.174,17.685,6.04,14.061,19.324Z" transform="translate(-20.056 -78.266)" fill="#f2c84b"/>
        <path id="Path_60" data-name="Path 60" d="M151.835,83.514h39.339L188.5,96.454H176.248l-11.043,51.761H150.022l11.043-51.761h-11.9Z" transform="translate(-2.753 -83.514)" fill="#f2c84b"/>
        <path id="Path_61" data-name="Path 61" d="M184.307,121.056l-1.811,8.454c-.517,2.675.172,4.917,3.192,5.089,5,.26,5.435-4.313,6.555-8.367h13.632c-1.9,12.424-9.836,18.116-21.827,18.289-9.833.086-17.6-3.968-15.268-15.011l4.227-19.669c2.588-12.422,11.3-16.477,21.912-16.564,9.662-.086,17.771,3.538,15.528,13.977l-2.932,13.8ZM195.694,112l1.035-4.745c.346-1.725-.085-4.919-3.623-4.919-3.882,0-5.521,3.107-6.212,6.47L186.205,112Z" transform="translate(7.569 -78.267)" fill="#f2c84b"/>
        <path id="Path_62" data-name="Path 62" d="M223.269,112.6l.086-.863c.086-1.811.6-3.709.69-5.521-.26-1.983-1.036-3.018-3.107-3.018-3.536,0-4.745,2.76-5.348,5.866l-4.313,19.927c-.606,3.02-.26,5.608,3.278,5.608,5.089,0,5.78-7.591,6.556-11.215H234.4a65.411,65.411,0,0,1-3.536,11.475c-3.106,6.038-8.886,8.8-14.925,9.4-1.293.085-2.586.258-4.657.258-9.834,0-16.132-3.968-13.8-15.011L201.7,109.84c2.588-12.422,9.834-16.564,20.445-16.564,13.544.174,17.685,6.04,14.063,19.324Z" transform="translate(22.958 -78.266)" fill="#f2c84b"/>
        <path id="Path_63" data-name="Path 63" d="M246.546,103.7h.174c4.053-4.055,7.591-5.177,11.473-5.177,6.642,0,10.005,4.745,8.626,10.957l-8.2,38.735H244.907l7.334-34.336c.515-2.76.172-4.141-3.02-4.141-3.02,0-4.573,2.675-5.091,5.089l-7.073,33.387H223.341l13.717-64.7h13.715Z" transform="translate(37.124 -83.514)" fill="#f2c84b"/>
      </g>
      <g id="Group_23" data-name="Group 23" transform="translate(150.048 158.732)">
        <path id="Path_64" data-name="Path 64" d="M111.538,160.83q.055,4.719,3.012,6.713a11.216,11.216,0,0,0,7.122,2.077q4.6-.055,6.573-1.968a6.123,6.123,0,0,0,.907-7.757,4.636,4.636,0,0,0-2.293-1.545q-3.928-1.4-11.924-3.4-5.019-1.573-6.93-4.385a9.963,9.963,0,0,1-1.884-6.043q.111-6.211,4.631-9.219a19.073,19.073,0,0,1,20.751.411q4.329,3.335,4.437,9.807h-6.959q-.272-3.96-2.618-5.644a10.214,10.214,0,0,0-5.973-1.6,14.146,14.146,0,0,0-2.454.226,7.3,7.3,0,0,0-2.345.872,4.57,4.57,0,0,0-1.8,1.6,4.773,4.773,0,0,0-.71,2.643,4.458,4.458,0,0,0,1.338,3.4,8.129,8.129,0,0,0,3.412,1.911q4.693,1.208,11.516,3.149a10.843,10.843,0,0,1,5.87,4.214,11.389,11.389,0,0,1,1.882,6.269q-.111,6.859-4.916,9.893a20.027,20.027,0,0,1-10.952,3.009A18.56,18.56,0,0,1,109.6,171.9q-4.7-3.5-5.026-11.071Z" transform="translate(-104.573 -132.434)" fill="#f2c84b"/>
        <path id="Path_65" data-name="Path 65" d="M127.756,140.435h6.962l7.533,22.219h.109l7.288-22.219h6.635l-11.2,31.34q-.733,1.967-1.441,3.792a20.966,20.966,0,0,1-1.905,3.286,7.716,7.716,0,0,1-2.663,2.191,9.573,9.573,0,0,1-4.19.927,28.976,28.976,0,0,1-4.405-.335v-5.5a16.991,16.991,0,0,0,3.02.394,3.832,3.832,0,0,0,3.126-1.153,8.932,8.932,0,0,0,1.333-2.983l.735-2.306Z" transform="translate(-92.11 -128.133)" fill="#f2c84b"/>
        <path id="Path_66" data-name="Path 66" d="M154.538,160.922a5.084,5.084,0,0,0,2.131,3.961,7.317,7.317,0,0,0,4.428,1.207,11.524,11.524,0,0,0,4.236-.73,3.133,3.133,0,0,0,2.185-3.174,3.061,3.061,0,0,0-.789-2.134,7.235,7.235,0,0,0-2.153-1.264,49.757,49.757,0,0,0-6.478-1.545,28.525,28.525,0,0,1-3.349-.983,13.35,13.35,0,0,1-3-1.545,7.617,7.617,0,0,1-2.068-2.526,7.792,7.792,0,0,1-.844-3.735,6.953,6.953,0,0,1,1.169-4.158,7.71,7.71,0,0,1,2.911-2.583,11.885,11.885,0,0,1,3.889-1.433,25.886,25.886,0,0,1,4.052-.337,15.142,15.142,0,0,1,7.969,2.048q3.4,2.133,4.079,7.071h-6.644a4.309,4.309,0,0,0-2.07-3.2,8.808,8.808,0,0,0-3.785-.758,11.691,11.691,0,0,0-3.24.506,2.582,2.582,0,0,0-1.988,2.525,2.385,2.385,0,0,0,.816,1.908,6.182,6.182,0,0,0,2.123,1.262,58.485,58.485,0,0,0,6.426,1.6,30.271,30.271,0,0,1,3.458.927,9.838,9.838,0,0,1,2.94,1.627,6.422,6.422,0,0,1,2.123,2.412,7.89,7.89,0,0,1,.79,3.732q-.136,5.217-4.2,7.406a17.154,17.154,0,0,1-8.72,2.245,14.86,14.86,0,0,1-9.019-2.577q-3.515-2.546-3.733-7.756Z" transform="translate(-81.125 -128.397)" fill="#f2c84b"/>
        <path id="Path_67" data-name="Path 67" d="M166.762,143.548h4.814v-8.9h6.342v8.9h5.737v4.883h-5.737v15.9a6.283,6.283,0,0,0,.49,3.034q.57,1.038,2.582,1.039a10.691,10.691,0,0,0,2.665-.224v5.052a38.477,38.477,0,0,1-4.125.337q-4.776-.055-6.378-1.937a8.3,8.3,0,0,1-1.576-5.646V148.431h-4.814Z" transform="translate(-71.142 -131.245)" fill="#f2c84b"/>
        <path id="Path_68" data-name="Path 68" d="M186.537,157.237a9.9,9.9,0,0,0,1.9,6.118,6.891,6.891,0,0,0,5.847,2.706q5.441,0,7.018-4.962h6.01a12.48,12.48,0,0,1-4.625,7.462,14.128,14.128,0,0,1-8.406,2.665q-6.8-.113-10.417-4.422-3.674-4.253-3.673-11.164a16.51,16.51,0,0,1,3.781-11.026A12.679,12.679,0,0,1,194.124,140q6.963.111,10.635,5.245a16.51,16.51,0,0,1,2.938,12Zm14.819-4.319a8.934,8.934,0,0,0-2.068-5.429,6.551,6.551,0,0,0-5.171-2.328,7.253,7.253,0,0,0-5.352,2.216,8.67,8.67,0,0,0-2.228,5.541Z" transform="translate(-63.921 -128.369)" fill="#f2c84b"/>
        <path id="Path_69" data-name="Path 69" d="M201.525,140.673h6.18v4.156h.168a10.977,10.977,0,0,1,3.552-3.624,12.6,12.6,0,0,1,10.651-.055,6.912,6.912,0,0,1,3.217,3.792,11.742,11.742,0,0,1,3.887-3.679A10.74,10.74,0,0,1,234.546,140q9.758-.254,9.927,9.962v20.453h-6.347V153.132a16.527,16.527,0,0,0-.744-5.789,4.17,4.17,0,0,0-1.664-1.676,7.663,7.663,0,0,0-3.09-.5q-6.585.113-6.444,7.914v17.336h-6.343V151.4a8.281,8.281,0,0,0-1.115-4.7q-1.176-1.536-4.21-1.538a6.255,6.255,0,0,0-4.582,1.957,7.868,7.868,0,0,0-2.062,5.7v17.588h-6.347Z" transform="translate(-52.454 -128.371)" fill="#f2c84b"/>
        <path id="Path_70" data-name="Path 70" d="M239.764,160.922a5.078,5.078,0,0,0,2.13,3.961,7.317,7.317,0,0,0,4.428,1.207,11.513,11.513,0,0,0,4.236-.73,3.129,3.129,0,0,0,2.185-3.174,3.061,3.061,0,0,0-.789-2.134,7.226,7.226,0,0,0-2.151-1.264,49.783,49.783,0,0,0-6.479-1.545,28.61,28.61,0,0,1-3.349-.983,13.384,13.384,0,0,1-3-1.545,7.654,7.654,0,0,1-2.068-2.526,7.791,7.791,0,0,1-.843-3.735,6.963,6.963,0,0,1,1.167-4.158,7.726,7.726,0,0,1,2.912-2.583,11.877,11.877,0,0,1,3.887-1.433,25.89,25.89,0,0,1,4.053-.337,15.146,15.146,0,0,1,7.969,2.048q3.4,2.133,4.079,7.071h-6.644a4.313,4.313,0,0,0-2.07-3.2,8.813,8.813,0,0,0-3.785-.758,11.683,11.683,0,0,0-3.24.506,2.582,2.582,0,0,0-1.988,2.525,2.38,2.38,0,0,0,.816,1.908,6.183,6.183,0,0,0,2.123,1.262,58.452,58.452,0,0,0,6.424,1.6,30.1,30.1,0,0,1,3.458.927,9.847,9.847,0,0,1,2.941,1.627,6.405,6.405,0,0,1,2.122,2.412,7.89,7.89,0,0,1,.79,3.732q-.134,5.217-4.2,7.406a17.158,17.158,0,0,1-8.72,2.245,14.86,14.86,0,0,1-9.019-2.577q-3.517-2.546-3.733-7.756Z" transform="translate(-35.31 -128.397)" fill="#f2c84b"/>
      </g>
      <path id="Path_71" data-name="Path 71" d="M125.819,177.316c-4.96-.55-11.4.146-18.6.484H93.305c-.566.118-1.147.208-1.721.312-6.127.188-11.584.552-15.886,1.042-26.837-1.284-48.061-17.5-48.061-37.32,0-17.43,16.4-32.075,38.608-36.231v-.152a2.8,2.8,0,0,0,0-5.506v-.051c-.062.009-.123.022-.185.032a2.4,2.4,0,0,0-1.59.283C38.9,104.951,19.98,121.779,19.98,141.835c0,23.328,25.587,42.3,57.482,42.944,6.23.621,14.439,1,23.471,1,10.145,0,19.287,1.322,25.71.56,5.883-.7,9.484-3.433,9.484-4.465C136.127,180.8,132.188,178.022,125.819,177.316Z" transform="translate(0 8.806)" fill="#f2c84b"/>
    </g>
  </g>
</svg>
