<svg xmlns="http://www.w3.org/2000/svg" xmlns:xlink="http://www.w3.org/1999/xlink" width="746" height="819" viewBox="0 0 746 819">
  <defs>
    <clipPath id="clip-Count_down_1">
      <rect width="746" height="819"/>
    </clipPath>
  </defs>
  <g id="Count_down_1" data-name="Count_down – 1" clip-path="url(#clip-Count_down_1)">
    <path id="Subtraction_2" data-name="Subtraction 2" d="M542-10779a370,370,0,0,1-73.962-7.455,364.79,364.79,0,0,1-68.889-21.393,366.449,366.449,0,0,1-62.34-33.834,369.875,369.875,0,0,1-54.317-44.809,369.735,369.735,0,0,1-44.812-54.32,366.58,366.58,0,0,1-33.839-62.34,364.8,364.8,0,0,1-21.384-68.889A369.655,369.655,0,0,1,175-11146h36.478c0,88.146,34.42,171.109,96.919,233.607s145.462,96.918,233.608,96.918c182.253,0,330.526-148.273,330.526-330.525S724.255-11476.528,542-11476.528V-11513a369.54,369.54,0,0,1,73.962,7.455,365.229,365.229,0,0,1,68.889,21.383,366.625,366.625,0,0,1,62.34,33.838,369.441,369.441,0,0,1,54.317,44.814,369.45,369.45,0,0,1,44.812,54.313,367.084,367.084,0,0,1,33.839,62.344,365.177,365.177,0,0,1,21.384,68.891A369.694,369.694,0,0,1,909-11146a369.7,369.7,0,0,1-7.454,73.961,365.3,365.3,0,0,1-21.384,68.889,367.087,367.087,0,0,1-33.839,62.34,369.77,369.77,0,0,1-44.812,54.32,369.931,369.931,0,0,1-54.317,44.809,366.443,366.443,0,0,1-62.34,33.834,364.792,364.792,0,0,1-68.889,21.393A369.9,369.9,0,0,1,542-10779Z" transform="translate(7839.762 8678.664) rotate(-45)" fill="#dc445c"/>
  </g>
</svg>
