<svg xmlns="http://www.w3.org/2000/svg" xmlns:xlink="http://www.w3.org/1999/xlink" width="1104" height="819" viewBox="0 0 1104 819">
  <defs>
    <clipPath id="clip-Dots">
      <rect width="1104" height="819"/>
    </clipPath>
  </defs>
  <g id="Dots" clip-path="url(#clip-Dots)">
    <g id="Group_50" data-name="Group 50" transform="translate(-4377 -13088)">
      <g id="Group_35" data-name="Group 35" transform="translate(4724.854 13424.945)">
        <circle id="Ellipse_25" data-name="Ellipse 25" cx="10" cy="10" r="10" transform="translate(0.146 0.055)" fill="#04bfae"/>
        <ellipse id="Ellipse_26" data-name="Ellipse 26" cx="11" cy="10" rx="11" ry="10" transform="translate(139.146 0.055)" fill="#04bfae"/>
        <ellipse id="Ellipse_27" data-name="Ellipse 27" cx="11" cy="10.5" rx="11" ry="10.5" transform="translate(139.146 139.055)" fill="#04bfae"/>
        <ellipse id="Ellipse_28" data-name="Ellipse 28" cx="10" cy="10.5" rx="10" ry="10.5" transform="translate(0.146 139.055)" fill="#04bfae"/>
      </g>
      <g id="Group_38" data-name="Group 38" transform="translate(4449 13424.945)">
        <circle id="Ellipse_25-2" data-name="Ellipse 25" cx="10" cy="10" r="10" transform="translate(0 0.055)" fill="#04bfae"/>
        <ellipse id="Ellipse_26-2" data-name="Ellipse 26" cx="10.5" cy="10" rx="10.5" ry="10" transform="translate(139 0.055)" fill="#04bfae"/>
        <circle id="Ellipse_27-2" data-name="Ellipse 27" cx="10.5" cy="10.5" r="10.5" transform="translate(139 139.055)" fill="#04bfae"/>
        <ellipse id="Ellipse_28-2" data-name="Ellipse 28" cx="10" cy="10.5" rx="10" ry="10.5" transform="translate(0 139.055)" fill="#04bfae"/>
      </g>
      <g id="Group_41" data-name="Group 41" transform="translate(5000.709 13424.945)">
        <ellipse id="Ellipse_25-3" data-name="Ellipse 25" cx="10.5" cy="10" rx="10.5" ry="10" transform="translate(0.291 0.055)" fill="#04bfae"/>
        <ellipse id="Ellipse_26-3" data-name="Ellipse 26" cx="10.5" cy="10" rx="10.5" ry="10" transform="translate(140.291 0.055)" fill="#04bfae"/>
        <circle id="Ellipse_27-3" data-name="Ellipse 27" cx="10.5" cy="10.5" r="10.5" transform="translate(140.291 139.055)" fill="#04bfae"/>
        <circle id="Ellipse_28-3" data-name="Ellipse 28" cx="10.5" cy="10.5" r="10.5" transform="translate(0.291 139.055)" fill="#04bfae"/>
      </g>
      <g id="Group_44" data-name="Group 44" transform="translate(5277.582 13424.945)">
        <circle id="Ellipse_25-4" data-name="Ellipse 25" cx="10" cy="10" r="10" transform="translate(0.418 0.055)" fill="#04bfae"/>
        <circle id="Ellipse_26-4" data-name="Ellipse 26" cx="10" cy="10" r="10" transform="translate(139.418 0.055)" fill="#04bfae"/>
        <ellipse id="Ellipse_27-4" data-name="Ellipse 27" cx="10" cy="10.5" rx="10" ry="10.5" transform="translate(139.418 139.055)" fill="#04bfae"/>
        <ellipse id="Ellipse_28-4" data-name="Ellipse 28" cx="10" cy="10.5" rx="10" ry="10.5" transform="translate(0.418 139.055)" fill="#04bfae"/>
      </g>
      <g id="Group_36" data-name="Group 36" transform="translate(4724.854 13144)">
        <circle id="Ellipse_25-5" data-name="Ellipse 25" cx="10" cy="10" r="10" transform="translate(0.146)" fill="#04bfae"/>
        <ellipse id="Ellipse_26-5" data-name="Ellipse 26" cx="11" cy="10" rx="11" ry="10" transform="translate(139.146)" fill="#04bfae"/>
        <ellipse id="Ellipse_27-5" data-name="Ellipse 27" cx="11" cy="10.5" rx="11" ry="10.5" transform="translate(139.146 139)" fill="#04bfae"/>
        <ellipse id="Ellipse_28-5" data-name="Ellipse 28" cx="10" cy="10.5" rx="10" ry="10.5" transform="translate(0.146 139)" fill="#04bfae"/>
      </g>
      <g id="Group_39" data-name="Group 39" transform="translate(4449 13144)">
        <circle id="Ellipse_25-6" data-name="Ellipse 25" cx="10" cy="10" r="10" fill="#04bfae"/>
        <ellipse id="Ellipse_26-6" data-name="Ellipse 26" cx="10.5" cy="10" rx="10.5" ry="10" transform="translate(139)" fill="#04bfae"/>
        <circle id="Ellipse_27-6" data-name="Ellipse 27" cx="10.5" cy="10.5" r="10.5" transform="translate(139 139)" fill="#04bfae"/>
        <ellipse id="Ellipse_28-6" data-name="Ellipse 28" cx="10" cy="10.5" rx="10" ry="10.5" transform="translate(0 139)" fill="#04bfae"/>
      </g>
      <g id="Group_42" data-name="Group 42" transform="translate(5000.709 13144)">
        <ellipse id="Ellipse_25-7" data-name="Ellipse 25" cx="10.5" cy="10" rx="10.5" ry="10" transform="translate(0.291)" fill="#04bfae"/>
        <ellipse id="Ellipse_26-7" data-name="Ellipse 26" cx="10.5" cy="10" rx="10.5" ry="10" transform="translate(140.291)" fill="#04bfae"/>
        <circle id="Ellipse_27-7" data-name="Ellipse 27" cx="10.5" cy="10.5" r="10.5" transform="translate(140.291 139)" fill="#04bfae"/>
        <circle id="Ellipse_28-7" data-name="Ellipse 28" cx="10.5" cy="10.5" r="10.5" transform="translate(0.291 139)" fill="#04bfae"/>
      </g>
      <g id="Group_45" data-name="Group 45" transform="translate(5277.582 13144)">
        <circle id="Ellipse_25-8" data-name="Ellipse 25" cx="10" cy="10" r="10" transform="translate(0.418)" fill="#04bfae"/>
        <circle id="Ellipse_26-8" data-name="Ellipse 26" cx="10" cy="10" r="10" transform="translate(139.418)" fill="#04bfae"/>
        <ellipse id="Ellipse_27-8" data-name="Ellipse 27" cx="10" cy="10.5" rx="10" ry="10.5" transform="translate(139.418 139)" fill="#04bfae"/>
        <ellipse id="Ellipse_28-8" data-name="Ellipse 28" cx="10" cy="10.5" rx="10" ry="10.5" transform="translate(0.418 139)" fill="#04bfae"/>
      </g>
      <g id="Group_37" data-name="Group 37" transform="translate(4724.854 13704.869)">
        <circle id="Ellipse_25-9" data-name="Ellipse 25" cx="10" cy="10" r="10" transform="translate(0.146 0.131)" fill="#04bfae"/>
        <ellipse id="Ellipse_26-9" data-name="Ellipse 26" cx="11" cy="10" rx="11" ry="10" transform="translate(139.146 0.131)" fill="#04bfae"/>
        <ellipse id="Ellipse_27-9" data-name="Ellipse 27" cx="11" cy="10.5" rx="11" ry="10.5" transform="translate(139.146 139.131)" fill="#04bfae"/>
        <ellipse id="Ellipse_28-9" data-name="Ellipse 28" cx="10" cy="10.5" rx="10" ry="10.5" transform="translate(0.146 139.131)" fill="#04bfae"/>
      </g>
      <g id="Group_40" data-name="Group 40" transform="translate(4449 13704.869)">
        <circle id="Ellipse_25-10" data-name="Ellipse 25" cx="10" cy="10" r="10" transform="translate(0 0.131)" fill="#04bfae"/>
        <ellipse id="Ellipse_26-10" data-name="Ellipse 26" cx="10.5" cy="10" rx="10.5" ry="10" transform="translate(139 0.131)" fill="#04bfae"/>
        <circle id="Ellipse_27-10" data-name="Ellipse 27" cx="10.5" cy="10.5" r="10.5" transform="translate(139 139.131)" fill="#04bfae"/>
        <ellipse id="Ellipse_28-10" data-name="Ellipse 28" cx="10" cy="10.5" rx="10" ry="10.5" transform="translate(0 139.131)" fill="#04bfae"/>
      </g>
      <g id="Group_43" data-name="Group 43" transform="translate(5000.709 13704.869)">
        <ellipse id="Ellipse_25-11" data-name="Ellipse 25" cx="10.5" cy="10" rx="10.5" ry="10" transform="translate(0.291 0.131)" fill="#04bfae"/>
        <ellipse id="Ellipse_26-11" data-name="Ellipse 26" cx="10.5" cy="10" rx="10.5" ry="10" transform="translate(140.291 0.131)" fill="#04bfae"/>
        <circle id="Ellipse_27-11" data-name="Ellipse 27" cx="10.5" cy="10.5" r="10.5" transform="translate(140.291 139.131)" fill="#04bfae"/>
        <circle id="Ellipse_28-11" data-name="Ellipse 28" cx="10.5" cy="10.5" r="10.5" transform="translate(0.291 139.131)" fill="#04bfae"/>
      </g>
      <g id="Group_46" data-name="Group 46" transform="translate(5277.582 13704.869)">
        <circle id="Ellipse_25-12" data-name="Ellipse 25" cx="10" cy="10" r="10" transform="translate(0.418 0.131)" fill="#04bfae"/>
        <circle id="Ellipse_26-12" data-name="Ellipse 26" cx="10" cy="10" r="10" transform="translate(139.418 0.131)" fill="#04bfae"/>
        <ellipse id="Ellipse_27-12" data-name="Ellipse 27" cx="10" cy="10.5" rx="10" ry="10.5" transform="translate(139.418 139.131)" fill="#04bfae"/>
        <ellipse id="Ellipse_28-12" data-name="Ellipse 28" cx="10" cy="10.5" rx="10" ry="10.5" transform="translate(0.418 139.131)" fill="#04bfae"/>
      </g>
    </g>
  </g>
</svg>
