<svg xmlns="http://www.w3.org/2000/svg" xmlns:xlink="http://www.w3.org/1999/xlink" width="134" height="134" viewBox="0 0 134 134">
  <defs>
    <clipPath id="clip-Behance">
      <rect width="134" height="134"/>
    </clipPath>
  </defs>
  <g id="Behance" clip-path="url(#clip-Behance)">
    <g id="Group_26" data-name="Group 26" transform="translate(-22.712 -28.741)">
      <path id="Path_72" data-name="Path 72" d="M25.88,55.524H61.6a52.775,52.775,0,0,1,10.081.541A24.661,24.661,0,0,1,80.4,59.038a15.682,15.682,0,0,1,6.424,6.109q2.35,3.893,2.35,10.165Q88.854,86.287,78.8,91.26q13.408,4.434,13.624,18.706-.21,13.841-8.684,19.3-8.369,5.406-21.135,5.3H25.88ZM45.766,86.611H61.183a9.361,9.361,0,0,0,5.33-1.737q2.664-1.682,2.77-5.808-.106-4.341-2.456-6.133a10.181,10.181,0,0,0-5.644-1.519H45.766Zm0,31.525H61.777a13.207,13.207,0,0,0,7.874-2.115q2.783-2.007,2.887-6.78-.1-5.207-3.149-7.322a13.388,13.388,0,0,0-7.611-2.007H45.766Z" transform="translate(0 0)" fill="#f2c84b"/>
      <path id="Path_73" data-name="Path 73" d="M168.619,125.084a14.889,14.889,0,0,0,3.522,9.45q3.156,3.639,8.939,3.638a11.868,11.868,0,0,0,6.257-1.683,9.64,9.64,0,0,0,4.206-4.67H208.5q-2.669,9.905-10.257,14.561a34.042,34.042,0,0,1-17.375,4.547q-13.712-.109-21.98-8.109-8.321-7.948-8.425-22.437.1-13.515,8.9-21.842A29.4,29.4,0,0,1,180.448,90.1q15.018.271,22.4,10.2,7.293,9.825,6.646,24.777ZM191.336,114.6a13.047,13.047,0,0,0-3.155-8.33,10.311,10.311,0,0,0-7.731-3.407,10.612,10.612,0,0,0-7.888,3.083,15.627,15.627,0,0,0-3.943,8.654Z" transform="translate(-52.832 -14.685)" fill="#f2c84b"/>
      <rect id="Rectangle_204" data-name="Rectangle 204" width="31.119" height="8.077" transform="translate(111.612 60.936)" fill="#f2c84b"/>
    </g>
  </g>
</svg>
