<svg xmlns="http://www.w3.org/2000/svg" xmlns:xlink="http://www.w3.org/1999/xlink" width="134" height="134" viewBox="0 0 134 134">
  <defs>
    <clipPath id="clip-Mail_1">
      <rect width="134" height="134"/>
    </clipPath>
  </defs>
  <g id="Mail_1" data-name="Mail – 1" clip-path="url(#clip-Mail_1)">
    <g id="Group_25" data-name="Group 25" transform="translate(-912 -625.121)">
      <g id="Layer_2" data-name="Layer 2" transform="translate(916 638)">
        <g id="invisible_box" data-name="invisible box">
          <rect id="Rectangle_195" data-name="Rectangle 195" width="128" height="109" transform="translate(0 0.121)" fill="none"/>
        </g>
        <g id="icons_Q2" data-name="icons Q2" transform="translate(4.504 15.763)">
          <path id="Path_45" data-name="Path 45" d="M114.8,7H7.371C4.4,7,2,9.016,2,11.5V79.062c0,2.487,2.4,4.5,5.371,4.5H114.8c2.966,0,5.371-2.016,5.371-4.5V11.5C120.169,9.016,117.764,7,114.8,7Zm-5.371,67.558H12.743V28.844l47,23.195a2.81,2.81,0,0,0,2.686,0l47-23.87Zm-47-32.878a2.811,2.811,0,0,1-2.686,0l-47-25.672h96.684Z" transform="translate(-2 -7)" fill="#f2c84b"/>
        </g>
      </g>
      <path id="Path_46" data-name="Path 46" d="M4908.055,668.575l50.02,24.482,51.616-24.482,2.128,53.991H4904.862Z" transform="translate(-3979.083 3.163)" fill="#f2c84b"/>
    </g>
  </g>
</svg>
