<svg xmlns="http://www.w3.org/2000/svg" xmlns:xlink="http://www.w3.org/1999/xlink" width="134" height="134" viewBox="0 0 134 134">
  <defs>
    <clipPath id="clip-Whatsapp">
      <rect width="134" height="134"/>
    </clipPath>
  </defs>
  <g id="Whatsapp" clip-path="url(#clip-Whatsapp)">
    <g id="Layer_2" data-name="Layer 2" transform="translate(0.604 0.604)">
      <g id="invisible_box" data-name="invisible box" transform="translate(0.396 0.396)">
        <rect id="Rectangle_193" data-name="Rectangle 193" width="133" height="133" fill="none"/>
      </g>
      <g id="Icons" transform="translate(8.253 5.333)">
        <g id="Group_15" data-name="Group 15">
          <path id="Path_43" data-name="Path 43" d="M103.446,19.146A58.477,58.477,0,0,0,3.56,60.276a55.4,55.4,0,0,0,7.834,29.1L3,119.592l31.057-8.114a56.8,56.8,0,0,0,27.979,6.995,58.2,58.2,0,0,0,41.409-99.327ZM62.037,108.68a47.845,47.845,0,0,1-26.58-7.834L16.99,105.882l5.036-17.907a50.083,50.083,0,0,1-8.674-27.7,48.684,48.684,0,1,1,48.684,48.4Z" transform="translate(-3 -1.956)" fill="#f2c84b"/>
          <path id="Path_44" data-name="Path 44" d="M69.747,52.4A81.7,81.7,0,0,0,59.674,47.64c-1.119-.56-2.238-.839-3.078.56s-3.917,4.756-4.756,5.876a2.238,2.238,0,0,1-3.078.28,42.529,42.529,0,0,1-11.751-7.275A41.969,41.969,0,0,1,28.9,37.008a1.959,1.959,0,0,1,.56-2.8l2.238-2.8a9.793,9.793,0,0,0,1.4-2.238,2.518,2.518,0,0,0,0-2.518c-.56-.839-3.358-7.834-4.477-10.912S26.1,13.226,25.26,13.226h-2.8a4.757,4.757,0,0,0-3.917,1.959,15.389,15.389,0,0,0-5.036,12.031,29.1,29.1,0,0,0,5.876,15.109c.839.839,10.352,15.668,24.9,21.824a45.885,45.885,0,0,0,8.394,3.078,17.907,17.907,0,0,0,9.233.56c2.8-.28,8.674-3.358,9.793-6.715s1.4-6.435.839-6.995a5.876,5.876,0,0,0-2.8-1.679Z" transform="translate(15.87 18.234)" fill="#f2c84b"/>
        </g>
      </g>
    </g>
  </g>
</svg>
